<svg width="45" height="45" viewBox="0 0 45 45" fill="none" xmlns="http://www.w3.org/2000/svg">
<path d="M39.5248 16.0876V28.9125C39.5248 31.0125 38.3998 32.9626 36.5811 34.0313L25.4436 40.4626C23.6248 41.5126 21.3748 41.5126 19.5373 40.4626L8.3998 34.0313C6.58105 32.9813 5.45605 31.0313 5.45605 28.9125V16.0876C5.45605 13.9876 6.58105 12.0375 8.3998 10.9687L19.5373 4.5375C21.3561 3.4875 23.6061 3.4875 25.4436 4.5375L36.5811 10.9687C38.3998 12.0375 39.5248 13.9688 39.5248 16.0876Z" stroke="black" stroke-width="2" stroke-linecap="round" stroke-linejoin="round"/>
<path d="M22.5001 20.625C24.9129 20.625 26.8688 18.669 26.8688 16.2562C26.8688 13.8434 24.9129 11.8876 22.5001 11.8876C20.0873 11.8876 18.1313 13.8434 18.1313 16.2562C18.1313 18.669 20.0873 20.625 22.5001 20.625Z" stroke="black" stroke-width="2" stroke-linecap="round" stroke-linejoin="round"/>
<path d="M30 31.2375C30 27.8625 26.6438 25.1251 22.5 25.1251C18.3562 25.1251 15 27.8625 15 31.2375" stroke="black" stroke-width="2" stroke-linecap="round" stroke-linejoin="round"/>
</svg>
