<svg width="24" height="24" fill="#111" xmlns="http://www.w3.org/2000/svg"><path d="M24 23.298L12.217.489c-.076-.076-.151-.151-.303-.151-.151 0-.226.076-.302.151L.056 23.375c-.075.074-.075.226 0 .301.076.076.151.151.302.151h23.338c.152 0 .227-.075.304-.151v-.378zm-23.113-.15L11.914 1.319l11.254 21.829H.887z"/><path d="M16.673 20.957c-.227 0-.378-.074-.529-.074s-.227-.077-.301-.151c-.077-.077-.077-.151-.151-.303v-4.984-.604c0-.151.074-.228.151-.303.074-.074.149-.151.301-.151s.303-.074.529-.074v-.378h-3.474v.378c.227 0 .378.074.527.074.151 0 .228.077.303.151.074.075.074.151.151.303v5.588c0 .151-.077.226-.151.303-.075.074-.151.151-.303.151-.149 0-.301.074-.527.074v.378h3.474v-.378zM11.083 13.782c-.227 0-.528-.075-.755-.075-.68 0-1.284.075-1.813.301-.529.227-.982.455-1.359.832-.377.378-.68.756-.907 1.283-.226.454-.302 1.058-.302 1.587 0 .378.076.755.151 1.057.076.377.227.68.453.983.227.301.453.604.755.83.302.226.68.452 1.133.604s.982.227 1.511.227h.604c.226 0 .377-.075.604-.075.151 0 .377-.075.529-.075.151 0 .226-.076.302-.076.076-.075.076-.227.151-.378.076-.151.076-.301.151-.452.076-.151.076-.303.151-.454.076-.149.076-.301.15-.453l-.453-.151c-.151.378-.378.681-.529.907-.227.227-.453.452-.68.604s-.529.227-.831.227c-.377 0-.679-.075-.982-.227-.302-.151-.528-.377-.755-.755-.227-.301-.377-.679-.528-1.133-.151-.453-.151-.907-.151-1.435 0-.377 0-.681.075-.983.076-.301.151-.604.302-.904.151-.303.302-.529.453-.756.151-.228.377-.377.604-.454.227-.151.529-.151.755-.151.302 0 .529.077.755.151.227.077.453.303.68.529.226.226.377.604.528.981l.453-.075c0-.226-.075-.377-.075-.604 0-.229-.076-.378-.076-.605 0-.227-.075-.378-.075-.604-.076 0-.303-.074-.454-.074-.071-.08-.222-.08-.525-.154z"/></svg>