<svg width="24" height="24" fill="#111" xmlns="http://www.w3.org/2000/svg"><path d="M23.205 21.805a.23.23 0 0 0 0-.303L16.543 8.631l6.512-6.511c.15-.151.15-.303 0-.454-.152-.151-.305-.151-.455 0l-6.36 6.359L12.151.151C12.075.075 12 0 11.848 0c-.076 0-.227.075-.303.151l-4.013 7.95-6.208-6.36c-.151-.151-.303-.151-.454 0a.48.48 0 0 0 0 .454l6.435 6.436L.794 21.502c-.076.076-.076.227 0 .303s.151.151.227.151H2.46L.946 23.471c-.151.15-.151.303 0 .454.075.075.151.075.227.075s.151 0 .228-.075l1.968-1.969h17.262l1.969 1.969c.076.075.15.075.226.075s.152 0 .229-.075c.15-.151.15-.304 0-.454l-1.516-1.515h1.439c.077 0 .151-.075.227-.151zM11.924.984l3.938 7.571L12 12.417 8.138 8.479 11.924.984zM1.552 21.35L7.76 9.085l3.786 3.786-8.48 8.479H1.552zm2.422 0L12 13.25l8.025 8.1H3.974zm16.883 0l-8.479-8.479 3.709-3.71 6.283 12.265h-1.514v-.076z"/></svg>