<svg width="24" height="24" fill="#111" xmlns="http://www.w3.org/2000/svg"><path d="M23.697 0H.303A.325.325 0 0 0 0 .303v23.395c0 .151.151.302.303.302h23.395c.151 0 .302-.151.302-.303V.303A.325.325 0 0 0 23.697 0zm-.379 23.318H.605V.605h22.713v22.713z"/><path d="M11.962 20.138a8.141 8.141 0 0 0 8.176-8.176c0-4.467-3.633-8.101-8.176-8.101a8.062 8.062 0 0 0-8.101 8.101c0 4.543 3.634 8.176 8.101 8.176zm0-15.671c4.164 0 7.495 3.331 7.495 7.495s-3.331 7.495-7.495 7.495-7.495-3.331-7.495-7.495c0-4.088 3.407-7.495 7.495-7.495z"/><path d="M8.782 13.174c.682 0 1.287-.606 1.287-1.288 0-.681-.605-1.286-1.287-1.286s-1.287.605-1.287 1.286c0 .757.53 1.288 1.287 1.288zM15.747 13.174c.682 0 1.288-.606 1.288-1.288 0-.681-.606-1.286-1.288-1.286-.681 0-1.287.605-1.287 1.286 0 .757.53 1.288 1.287 1.288z"/></svg>