<svg width="24" height="24" fill="#111" xmlns="http://www.w3.org/2000/svg"><path d="M24 23.696V.304c0-.076 0-.152-.075-.229C23.85 0 23.773 0 23.697 0H.378C.303 0 .227 0 .151.075.075.151 0 .228 0 .304v23.393c0 .152.151.303.303.303h23.318c.076 0 .152 0 .229-.075.075-.076.075-.076.075-.152.075-.001.075-.077.075-.077zM.681 1.063l5.376 5.393C4.694 7.899 3.861 9.873 3.861 12s.833 4.025 2.196 5.544L.681 22.937V1.063zM11.583 12l-4.997 5.013C5.375 15.646 4.618 13.898 4.618 12c0-1.975.757-3.722 1.969-5.088L11.583 12zM6.965 6.456c1.363-1.215 3.104-1.975 4.997-1.975 1.969 0 3.71.76 5.073 1.975l-4.997 5.089-5.073-5.089zm5.073 6l4.997 5.013c-1.363 1.214-3.104 1.975-5.073 1.975a7.233 7.233 0 0 1-4.997-1.975l5.073-5.013zm.454-.456l5.072-5.088c1.212 1.366 1.969 3.113 1.969 5.088s-.757 3.722-1.969 5.013L12.492 12zm4.997-6a8.034 8.034 0 0 0-5.527-2.202c-2.12 0-4.012.835-5.526 2.202L1.136.607h21.729L17.489 6zM6.511 18a8.031 8.031 0 0 0 5.527 2.202c2.119 0 4.012-.834 5.526-2.202l5.376 5.393H1.136L6.511 18zm11.432-.456c1.363-1.443 2.196-3.417 2.196-5.544s-.833-4.025-2.196-5.544l5.375-5.393V22.86l-5.375-5.316z"/></svg>