<svg width="24" height="24" fill="#111" xmlns="http://www.w3.org/2000/svg"><path d="M23.752 24.028H.304A.325.325 0 0 1 0 23.725V.275c0-.151.151-.304.304-.304h23.372c.152 0 .304.152.304.304v23.373c.076.229-.076.38-.228.38zM.683 23.345h22.766V.579H.683v22.766z"/><path d="M7.134 21.601a.328.328 0 0 1-.305-.305V2.855c0-.151.152-.303.305-.303.151 0 .303.151.303.303v18.44c.076.153-.077.306-.303.306zM12.066 21.601a.328.328 0 0 1-.305-.305V2.855c0-.151.152-.303.305-.303.151 0 .303.151.303.303v18.44c0 .153-.151.306-.303.306zM17.074 21.601a.328.328 0 0 1-.305-.305V2.855c0-.151.152-.303.305-.303.151 0 .304.151.304.303v18.44c.076.153-.076.306-.304.306z"/></svg>