<svg width="24" height="24" fill="#111" xmlns="http://www.w3.org/2000/svg"><path d="M23.682 19.647H.814c-.151 0-.228-.074-.303-.15l-.454-.606a.479.479 0 0 1 0-.453l4.846-7.648c.076-.076.151-.152.303-.152h18.098V5.11H12.55c-.227 0-.378-.152-.378-.379s.151-.378.378-.378h11.056c.228 0 .378.151.378.378V19.27c.077.151-.15.377-.302.377zM.965 18.891h22.338v-7.496H5.433l-4.619 7.27.151.226z"/><path d="M10.203 13.894a1.52 1.52 0 0 1 1.515 1.515 1.52 1.52 0 0 1-1.515 1.515 1.52 1.52 0 0 1-1.514-1.515c.076-.834.757-1.515 1.514-1.515M15.883 13.894a1.52 1.52 0 0 1 1.515 1.515c0 .832-.683 1.515-1.515 1.515a1.52 1.52 0 0 1-1.515-1.515c.075-.834.682-1.515 1.515-1.515"/></svg>