<svg width="24" height="24" fill="#111" xmlns="http://www.w3.org/2000/svg"><path d="M23.887 23.346l-4.709-4.71h3.064c.148 0 .299-.149.299-.299V5.626c0-.148-.15-.298-.299-.298h-3.064L23.887.617c.15-.149.15-.3 0-.448-.148-.15-.299-.15-.447 0l-5.158 5.159h-5.683c-.15 0-.299.149-.299.298-.001.149.148.374.298.374h5.009l-4.86 4.859h-1.42L.711.169c-.075-.15-.3-.15-.449 0-.149.148-.149.373 0 .448L10.43 10.785H6.168c-.075 0-.224.074-.299.149l-4.262 6.729c-.075.149-.075.299 0 .373l.374.522c.075.076.15.151.225.151h2.617l-4.71 4.709c-.15.149-.15.3 0 .448.224 0 .298.075.373.075.076 0 .15 0 .225-.075l5.159-5.157h12.412l5.158 5.157c.074.075.148.075.225.075.074 0 .148 0 .223-.075a.358.358 0 0 0-.001-.52zm-1.944-5.309H18.58l-5.982-5.981.523-.523h8.896v6.505h-.074zM18.58 6h3.363v4.859H13.72L18.58 6zm-6.43 5.458h-.075.075zm-9.645 6.579l-.149-.224 4.037-6.355h4.785l.523.523-5.981 5.982H2.505v.074zm4.037 0l5.532-5.532 5.533 5.532H6.542z"/></svg>