<svg width="24" height="24" fill="#111" xmlns="http://www.w3.org/2000/svg"><path d="M12 0C5.358 0 0 5.358 0 12s5.358 12 12 12c6.641 0 12-5.358 12-12S18.565 0 12 0zm0 23.246C5.811 23.246.755 18.189.755 12S5.811.755 12 .755C18.188.755 23.245 5.811 23.245 12 23.169 18.189 18.188 23.246 12 23.246z"/><path d="M15.32 15.623c-.075-.075-.151-.227-.226-.377-.076-.15-.151-.378-.303-.68-.302-.755-.528-1.51-.755-2.265-.227-.754-.528-1.509-.755-2.264-.226-.754-.527-1.509-.755-2.264l-.603.151-2.491 6.869c-.075.226-.15.452-.227.603-.075.151-.15.302-.226.378-.076.075-.227.151-.303.151-.148.001-.299.075-.449.075v.453h2.717V16c-.302 0-.528-.074-.604-.15-.075-.075-.226-.151-.226-.302s0-.302.075-.528c.075-.226.15-.528.227-.679.075-.228.15-.378.15-.604h2.265c.075.151.075.303.15.453.076.151.076.302.151.453.076.151.076.302.15.453.075.226.075.377.075.527 0 .151-.075.227-.149.303-.076.074-.303.074-.529.15v.453h3.472v-.453c-.151 0-.302-.076-.453-.076a87.472 87.472 0 0 0-.378-.377zm-4.678-2.642c.15-.452.302-.981.452-1.434.151-.453.303-.981.453-1.434h.076l.904 2.868h-1.885z"/></svg>