<svg width="24" height="24" fill="#111" xmlns="http://www.w3.org/2000/svg"><path d="M12 24C5.434 24 0 18.642 0 12 0 5.434 5.434 0 12 0s12 5.434 12 12c0 6.642-5.358 12-12 12zM12 .83A11.146 11.146 0 0 0 .83 12c0 6.189 4.981 11.245 11.17 11.245S23.245 18.189 23.245 12C23.245 5.812 18.189.83 12 .83z"/><path d="M8.566 7.736v.453c.227 0 .377.075.527.075.151 0 .227.075.302.15.077.076.077.228.152.378V15.284a.572.572 0 0 1-.151.377c-.075.076-.15.151-.302.151-.15 0-.301.075-.527.075v.377h3.924v-.377c-.302 0-.453-.075-.604-.075-.151-.075-.302-.075-.378-.151-.075-.075-.15-.226-.15-.377v-2.566l.83.226h.529c.377-.075.755-.15 1.057-.226.302-.151.604-.302.83-.529.227-.226.452-.452.604-.83.15-.302.227-.68.227-1.132 0-.453-.076-.83-.302-1.132-.151-.303-.453-.604-.755-.83-.153-.152-.379-.227-.606-.302-.227-.076-.452-.151-.754-.151-.303 0-.604-.075-.982-.075H8.566zm2.716 1.056V8.49c0-.075.076-.15.076-.15.075 0 .075-.075.15-.075h.303c.15 0 .377 0 .528.075.15.075.377.15.528.302.151.15.302.377.377.604.076.227.151.604.151.981 0 .378-.075.679-.151.905-.075.227-.151.453-.302.604-.151.15-.227.302-.377.377-.151.075-.227.151-.378.151s-.227.075-.302.075h-.378c-.075 0-.227-.075-.301-.075V8.792h.076z"/></svg>