<svg width="24" height="24" fill="#111" xmlns="http://www.w3.org/2000/svg"><path d="M11.962 24C5.375 24 0 18.566 0 12S5.375 0 11.962 0 24 5.434 24 12s-5.376 12-12.038 12zm0-23.17C5.754.83.757 5.812.757 12c0 6.189 5.072 11.17 11.205 11.17 6.209 0 11.204-5.056 11.204-11.17 0-6.188-4.995-11.17-11.204-11.17z"/><path d="M15.559 9.697c0-.226-.076-.377-.076-.604s0-.378-.076-.604v-.453-.302H8.441v.453c.227 0 .454.075.605.075s.304.077.38.153c.075.075.151.227.151.377s.076.378 0 .68v5.736c0 .15-.076.301-.151.377-.076.076-.228.151-.379.151s-.378.075-.605.075v.454h4.543v-.454c-.303 0-.53-.075-.682-.075s-.303-.076-.379-.152c-.151-.15-.228-.227-.228-.377 0-.151-.076-.378 0-.68v-2.188H13.665c.15 0 .302.076.454.151.075.075.15.15.227.302.076.15.076.302.152.527h.529v-2.565h-.529c-.076.227-.076.377-.152.528s-.151.227-.227.302c-.076.076-.228.076-.454.151H11.696V8.792c0-.15 0-.227.076-.302 0-.075.075-.075.151-.151h1.742c.227 0 .378.076.529.151s.228.151.378.226c.152.151.228.303.304.454.075.15.151.377.227.603l.456-.076z"/></svg>