<svg width="24" height="24" fill="#111" xmlns="http://www.w3.org/2000/svg"><path d="M12.038 21.584c5.962 0 10.792-4.83 10.792-10.792S17.924 0 12.038 0C6.151 0 1.17 4.83 1.17 10.792s4.905 10.792 10.868 10.792zm0-20.904c5.584 0 10.112 4.528 10.112 10.112 0 5.585-4.528 10.113-10.112 10.113-5.585 0-10.113-4.528-10.113-10.113C1.925 5.208 6.453.68 12.038.68z"/><path d="M12.415 14.642c-.302 0-.453-.076-.68-.076a.574.574 0 0 1-.377-.151.575.575 0 0 1-.151-.377v-2.566h1.812c.151 0 .302.075.377.151.076.075.151.15.228.302.074.15.074.301.15.452h.453v-2.34h-.453c-.076.227-.076.378-.15.453-.076.075-.151.227-.228.227-.075.075-.226.075-.377.075h-1.812V8.15v-.302c0-.075.076-.075.151-.151H12.944c.151 0 .302.076.452.076.151.075.228.15.302.227.075.15.227.227.302.377.075.151.15.378.227.528l.452-.075c0-.151 0-.378-.075-.528 0-.151 0-.378-.076-.528v-.453-.226H8.265v.377c.226 0 .377.075.528.075.15 0 .226.076.301.15.076.076.151.227.151.303v5.736a.577.577 0 0 1-.151.378c-.075.075-.15.15-.301.15s-.303.076-.528.076v.377h4.075v-.075h.075zM21.773 23.245H2.227c-.227 0-.377.151-.377.377 0 .227.15.378.377.378h19.547c.226 0 .377-.151.377-.378-.001-.226-.152-.377-.378-.377z"/></svg>