<svg width="24" height="24" fill="#111" xmlns="http://www.w3.org/2000/svg"><path d="M12 21.066c5.793 0 10.533-4.741 10.533-10.533C22.533 4.739 17.793 0 12 0 6.207 0 1.467 4.739 1.467 10.533 1.542 16.325 6.282 21.066 12 21.066zM12 .752c5.417 0 9.855 4.438 9.855 9.855 0 5.417-4.438 9.856-9.855 9.856-5.417-.075-9.781-4.515-9.781-9.931A9.762 9.762 0 0 1 12 .752z"/><path d="M12.15 14.521c-.226 0-.376-.076-.527-.076s-.226-.074-.301-.149c-.075-.076-.075-.15-.151-.301v-2.258l.678.15h.376c.301 0 .602-.075.903-.225.301-.076.526-.301.752-.452.226-.226.376-.452.527-.677.149-.301.149-.602.149-.979 0-.376-.075-.752-.226-.978a1.767 1.767 0 0 0-.603-.677 3.465 3.465 0 0 0-.526-.226c-.15-.075-.375-.075-.602-.15-.225 0-.526-.075-.751-.075H8.99v.376c.15 0 .301.076.452.076.075 0 .15.075.226.15.075.075.075.15.075.301V14.069c0 .151-.075.227-.075.302-.075.074-.15.15-.226.15-.151 0-.301.075-.452.075v.301h3.311v-.376h-.151zm-.978-6.245V8.05c0-.076.076-.076.076-.15 0 0 .075-.076.15-.076h.226c.15 0 .301 0 .452.076.15.075.301.15.376.301.15.15.226.301.301.526.076.226.151.526.151.828 0 .301 0 .602-.075.828a3.675 3.675 0 0 1-.227.527c-.074.15-.225.225-.3.301-.075.075-.226.15-.301.15-.076 0-.15.075-.226.075h-.301c-.075 0-.15-.075-.226-.075V8.276h-.076zM21.555 23.248H2.52c-.15 0-.301.15-.301.376s.151.376.376.376H21.63c.15 0 .376-.15.376-.376s-.301-.376-.451-.376z"/></svg>