<svg width="24" height="24" fill="#111" xmlns="http://www.w3.org/2000/svg"><path d="M8.603 11.525c1.388-.584 2.118-1.607 2.118-2.776 0-1.388-1.022-2.776-3.287-2.776-1.242 0-2.338.438-2.996.876l.438 1.169c.512-.365 1.389-.804 2.265-.804 1.461 0 2.045.804 2.045 1.754 0 1.388-1.461 1.973-2.557 1.973h-.876v1.169h.877c1.534 0 2.922.73 2.995 2.337 0 .949-.584 2.265-2.63 2.265-1.096 0-2.119-.438-2.557-.729L4 17.224c.584.365 1.68.804 2.996.804 2.776 0 4.164-1.606 4.164-3.506.073-1.682-1.096-2.705-2.557-2.997zM16.201 5.973c-2.338 0-4.019 2.119-4.019 6.064 0 3.872 1.534 5.991 3.8 5.991 2.557 0 4.018-2.191 4.018-6.137 0-3.726-1.388-5.918-3.799-5.918zm-.146 10.812c-1.389 0-2.338-1.68-2.338-4.749 0-3.142 1.023-4.822 2.338-4.822 1.607 0 2.338 1.9 2.338 4.749 0 2.922-.731 4.822-2.338 4.822z"/></svg>