<svg width="24" height="24" fill="#111" xmlns="http://www.w3.org/2000/svg"><path d="M19.04 18.063l4.903-11.769c.076-.151 0-.302-.15-.377-.151-.076-.303 0-.377.151l-.604 1.509c-1.358-1.207-2.641-1.66-3.848-1.509-.302.075-.604.151-.905.302L23.792.637c.075-.076.075-.302 0-.377-.076-.075-.303-.075-.377 0l-7.769 7.77c-.905-1.283-2.263-1.961-3.621-1.961s-2.641.83-3.47 2.112L.558.185C.483.109.256.109.181.185.105.26.105.487.181.562l5.507 5.507c-.151 0-.302-.076-.528-.076-1.283-.151-2.641.378-3.999 1.585L.558 6.069c-.076-.151-.226-.151-.377-.151-.151.075-.227.226-.151.377l5.054 11.769c.076.075.151.151.227.151h.075l-5.13 5.129c-.075.076-.075.302 0 .377.076.076.151.076.227.076.075 0 .151 0 .226-.076l5.507-5.506h11.692l5.582 5.582c.076.075.151.075.227.075.076 0 .151 0 .227-.075.076-.076.076-.303 0-.377l-5.205-5.205h.076c.074.074.225 0 .225-.152zM12.024 6.597c1.207-.075 2.414.604 3.243 1.811l-3.243 3.244-3.093-3.094c.679-1.207 1.811-1.886 3.093-1.961zM5.461 17.686l-4.074-9.58c1.358-1.207 2.565-1.735 3.696-1.584 1.132.151 2.188.98 3.093 2.565.075.075.151.151.226.151.076 0 .151-.076.227-.151l2.942 2.942-5.658 5.657h-.452zm1.283 0l5.281-5.28 5.28 5.28H6.744zm11.316 0l-5.658-5.657L15.57 8.86c0 .076.075.076.075.151.075.076.151.151.226.151.076 0 .227-.075.227-.151.83-1.433 1.887-2.338 3.018-2.489 1.057-.151 2.264.377 3.546 1.509l-3.998 9.581h-.604v.074z"/></svg>