<svg width="24" height="24" fill="#111" xmlns="http://www.w3.org/2000/svg"><path d="M23.744 5.84c-.151-.075-.379 0-.454.151l-.606 1.364c-1.288-1.137-2.576-1.667-3.788-1.439-1.137.151-2.197.909-3.106 2.272-.909-1.439-2.349-2.272-3.864-2.272-1.439 0-2.728.833-3.561 2.197-.91-1.288-1.971-2.122-3.183-2.273-1.212-.152-2.576.379-3.94 1.592l-.606-1.44C.56 5.84.333 5.765.181 5.84c-.151.076-.227.227-.151.379l5 11.744c.076.151.152.227.303.227h13.411c.151 0 .227-.075.303-.227l4.925-11.744c.075-.152 0-.303-.228-.379zm-5.227 11.668H5.561L1.469 8.037C2.757 6.9 3.97 6.37 5.106 6.522c1.137.151 2.122.984 3.031 2.5.075.076.151.152.303.152.151 0 .227-.076.303-.151.682-1.439 1.895-2.349 3.258-2.349 1.439-.076 2.804.833 3.561 2.349.076.075.151.151.304.151.15 0 .227-.076.303-.151.834-1.439 1.818-2.273 2.955-2.425 1.061-.151 2.197.379 3.484 1.439l-4.091 9.471z"/></svg>