<svg width="24" height="24" fill="#111" xmlns="http://www.w3.org/2000/svg"><path d="M10.258 18.568H5.561c-.227 0-.378.152-.378.303 0 .152.151.304.303.304h4.698a.326.326 0 0 0 .303-.304c-.002-.15-.077-.303-.229-.303zM18.668 18.568h-4.697c-.151 0-.303.152-.303.303 0 .152.151.304.303.304h4.697a.325.325 0 0 0 .303-.304c0-.15-.151-.303-.303-.303zM23.744 4.855c-.151-.076-.379 0-.454.151l-.606 1.364c-1.288-1.136-2.576-1.667-3.788-1.439-1.137.152-2.197.909-3.106 2.273-.909-1.439-2.349-2.273-3.864-2.273-1.439 0-2.728.833-3.561 2.197-.91-1.288-1.971-2.122-3.183-2.273-1.212-.151-2.576.379-3.94 1.591l-.606-1.44C.56 4.855.333 4.779.181 4.855c-.151.076-.227.228-.151.379l5 11.744c.076.151.152.228.303.228h13.411c.151 0 .227-.076.303-.228l4.925-11.744c.075-.151 0-.303-.228-.379zm-5.227 11.668H5.561L1.469 7.052c1.288-1.137 2.5-1.667 3.637-1.515 1.137.151 2.122.985 3.031 2.5.075.076.151.151.303.151.151 0 .227-.076.303-.151.682-1.439 1.895-2.349 3.258-2.349 1.439-.076 2.804.833 3.561 2.349.076.076.151.151.304.151.15 0 .227-.076.303-.151.834-1.439 1.818-2.273 2.955-2.424 1.061-.152 2.197.379 3.484 1.439l-4.091 9.471z"/><path d="M18.063 9.098c-.606 0-1.061.455-1.061 1.061s.454 1.061 1.061 1.061c.605 0 1.061-.455 1.061-1.061-.001-.531-.456-1.061-1.061-1.061zm0 1.515a.488.488 0 0 1-.455-.455c0-.228.151-.455.455-.455.227 0 .454.151.454.455s-.228.455-.454.455zM9.804 12.432c.682-.303 1.061-.833 1.061-1.439 0-.682-.53-1.439-1.667-1.439-.606 0-1.212.227-1.515.455l.228.606c.227-.151.682-.379 1.136-.379.758 0 1.061.455 1.061.909 0 .682-.757.985-1.288.985h-.456v.606h.455c.757 0 1.515.378 1.515 1.212 0 .454-.303 1.137-1.288 1.137-.53 0-1.061-.229-1.288-.379l-.303.605c.303.228.833.379 1.515.379 1.364 0 2.122-.834 2.122-1.742 0-.835-.531-1.365-1.288-1.516zM13.668 9.628c-1.212 0-2.046 1.061-2.046 3.03 0 1.97.757 3.031 1.894 3.031 1.289 0 2.046-1.137 2.046-3.106 0-1.894-.682-2.955-1.894-2.955zm-.076 5.456c-.682 0-1.212-.834-1.212-2.425 0-1.591.531-2.424 1.212-2.424.834 0 1.213.985 1.213 2.424 0 1.44-.379 2.425-1.213 2.425z"/></svg>